Coordinates
version=1
nRows=9
nColumns=40
inDegrees=yes

Units are S.I. units (second, meters, Newtons, ...)
If the header above contains a line with 'inDegrees', this indicates whether rotational values are in degrees (yes) or radians (no).

endheader
time	pelvis_tilt	pelvis_list	pelvis_rotation	pelvis_tx	pelvis_ty	pelvis_tz	hip_flexion_r	hip_adduction_r	hip_rotation_r	knee_angle_r	knee_angle_r_beta	ankle_angle_r	subtalar_angle_r	mtp_angle_r	hip_flexion_l	hip_adduction_l	hip_rotation_l	knee_angle_l	knee_angle_l_beta	ankle_angle_l	subtalar_angle_l	mtp_angle_l	lumbar_extension	lumbar_bending	lumbar_rotation	arm_flex_r	arm_add_r	arm_rot_r	elbow_flex_r	pro_sup_r	wrist_flex_r	wrist_dev_r	arm_flex_l	arm_add_l	arm_rot_l	elbow_flex_l	pro_sup_l	wrist_flex_l	wrist_dev_l
      8.00000000000000000000	    -17.29056124616279888073	     -4.17332990332863573713	    179.51991972907703143392	      0.23358117830751351507	      0.63314782319720130932	     -0.94265246851514206128	     54.68539118758519634866	    -49.57470492334630307596	      9.04722411721904862247	     84.68515711818892555129	      1.47803481928110946875	     14.71104508436113533776	      0.00000000000000000000	      0.00000000000000000000	     38.14775749490197398472	    -49.85414783165450103297	     -6.32807233734940410841	     73.24608279895990392561	      1.27838530903023417373	     10.71719283434454794701	      0.00000000000000000000	      0.00000000000000000000	    -69.07206049043826112666	     -5.18731900113699229138	     -5.73154239783247909656	     41.01752777226539592448	      5.27118242453651397739	     36.22358935381867439673	      2.61079000075170242212	      9.60143787521415248420	      0.00000000000000000000	      0.00000000000000000000	     49.85744628066541395128	    -10.45452051820707239926	     84.19700208062889146277	      8.04011426065241785466	     83.57348588234906117123	      0.00000000000000000000	      0.00000000000000000000
      8.00500000000000078160	    -17.16733295741255460598	     -4.16732235859305522041	    179.53860301475404526172	      0.23323212510141039244	      0.63320646762988419542	     -0.94237275907141515585	     54.76592139404124992552	    -49.56722398830958553617	      9.04737323963586881348	     84.64919291420407887472	      1.47740712550871511333	     14.68238968182397208295	      0.00000000000000000000	      0.00000000000000000000	     38.29406282045839304828	    -49.85399474226800720089	     -6.29001790285147333037	     73.26777627523192393255	      1.27876393161738421966	     10.58554112673984093362	      0.00000000000000000000	      0.00000000000000000000	    -68.97322207322372378258	     -5.14488663491853248644	     -5.76642801173638108736	     40.89834079624332474623	      5.20362084750004960654	     37.06055949016580086663	      2.64117893069063836009	      9.61615064007999365003	      0.00000000000000000000	      0.00000000000000000000	     49.82361762602234733777	    -10.41325086332726890248	     83.87737225907136462411	      7.99769474892902998420	     83.52388245496001673018	      0.00000000000000000000	      0.00000000000000000000
      8.00999999999999978684	    -17.15668293609046557435	     -4.18698705964551898262	    179.52784449976815039918	      0.23294321493515840471	      0.63352969848887330517	     -0.94215636943818303894	     54.72309802531286493377	    -49.56771492529581024655	      9.05875458308537417906	     84.57501346183299517634	      1.47611244982751332877	     14.69842728292375433341	      0.00000000000000000000	      0.00000000000000000000	     38.16961970473363408018	    -49.85343827018098750159	     -6.40561059389421227905	     73.24534799382638539100	      1.27837248426129379553	     10.63432618275615304526	      0.00000000000000000000	      0.00000000000000000000	    -69.00919622103934614188	     -5.14223799390379721075	     -5.79633021809019499671	     40.94101908261510658349	      5.24661828570054566967	     36.63617325138539371210	      2.64124627681989743166	      9.58309401795492554754	      0.00000000000000000000	      0.00000000000000000000	     49.82638412626482704582	    -10.43316267137518238428	     83.89701627168838626858	      8.02394470629193889977	     83.57661294155512621273	      0.00000000000000000000	      0.00000000000000000000
      8.01500000000000056843	    -17.09757775397002177442	     -4.18918343871093501463	    179.53558866586189424197	      0.23262516545318701056	      0.63381193249403577905	     -0.94191855955554659730	     54.69978446543103700606	    -49.56624632813679198762	      9.03415479084518580066	     84.50793354305464788467	      1.47494168438286088474	     14.64554954877908521382	      0.00000000000000000000	      0.00000000000000000000	     38.17445995807032943503	    -49.85355935598909127293	     -6.47483914445848718344	     73.22492069054445096299	      1.27801596056172050986	     10.54436853916941885245	      0.00000000000000000000	      0.00000000000000000000	    -68.99862280769657729707	     -5.11700732522006784819	     -5.77780778831045527255	     41.05486859777622044021	      5.28900784112787114566	     35.83013365576924513789	      2.59971479731252586021	      9.97252458142642339567	      0.00000000000000000000	      0.00000000000000000000	     49.82436921149592023994	    -10.37810289933874940971	     83.79921074897762878209	      7.97682188356683674613	     83.50771210522550802580	      0.00000000000000000000	      0.00000000000000000000
      8.01999999999999957367	    -17.21336476241018331734	     -4.23005444958335630190	    179.49781341514795940384	      0.23244042679191675993	      0.63441734459269150115	     -0.94178567323489503771	     54.52261384597646554084	    -49.57936538558290351375	      9.04706696482037742157	     84.40634654951844595416	      1.47316865686845188677	     14.62142748103346967525	      0.00000000000000000000	      0.00000000000000000000	     37.80167139597811143403	    -49.85315057641906122399	     -6.75808397889415779503	     73.13658624617043813032	      1.27647423366447432258	     10.81010689084053666420	      0.00000000000000000000	      0.00000000000000000000	    -69.17845743900869592835	     -5.14803319802568282171	     -5.79097907633683828266	     41.11963349129892719702	      5.33541279521335809477	     35.21419698913243934157	      2.59973029400988719928	     10.03708188585497218526	      0.00000000000000000000	      0.00000000000000000000	     49.89435123258239457300	    -10.42485269494072674945	     84.10019136691323637933	      8.10612208255009036861	     83.40946139529972924720	      0.00000000000000000000	      0.00000000000000000000
      8.02500000000000035527	    -17.11292390581590439069	     -4.20925361734022907001	    179.51567620554848758729	      0.23207512901867682897	      0.63457127002755431278	     -0.94154657516473527767	     54.52925779152423757523	    -49.57348067642747935224	      8.99510663871949311954	     84.34799042436755200924	      1.47215015034586294007	     14.60457050138871437639	      0.00000000000000000000	      0.00000000000000000000	     37.89690394085640434696	    -49.85288213920362210274	     -6.73983765773928222842	     73.14982329521190251853	      1.27670526375349568937	     10.74951050341412539524	      0.00000000000000000000	      0.00000000000000000000	    -69.10797840924826118680	     -5.10091254766106683149	     -5.79012370261856545994	     41.15115645171650271550	      5.31884733896653827401	     35.28254754745084653678	      2.62192244716251909864	      9.86119982926493143793	      0.00000000000000000000	      0.00000000000000000000	     49.85006878569018340386	    -10.38464314313478453755	     83.80446566704750921417	      8.03238685883956371470	     83.48182013965028147595	      0.00000000000000000000	      0.00000000000000000000
      8.02999999999999936051	    -17.13067014023889100827	     -4.22269892839993055134	    179.49524796990081654258	      0.23179880096036728498	      0.63496121743356204181	     -0.94140767837227656845	     54.44343558702086482981	    -49.57727607020816407157	      8.97569498155877454337	     84.28244932247332599218	      1.47100624232242349620	     14.58839659724139181662	      0.00000000000000000000	      0.00000000000000000000	     37.73535461315984917974	    -49.85319934958048548879	     -6.87688461241381432387	     73.08343294706594406307	      1.27554653358680347708	     10.79366954610673090542	      0.00000000000000000000	      0.00000000000000000000	    -69.17812001195508742057	     -5.10902125140796670166	     -5.75435734383691954719	     41.22647682696975834915	      5.35258159385129772545	     34.55943366000690275541	      2.61689427495650583921	      9.84262138904881034307	      0.00000000000000000000	      0.00000000000000000000	     49.88098989143535533231	    -10.35291762150789907082	     83.81545426659043585005	      8.04555907218547794457	     83.56935617037150620945	      0.00000000000000000000	      0.00000000000000000000
      8.03500000000000014211	    -17.06585178468726837764	     -4.19744927875844631160	    179.51197367353341860507	      0.23148118022855715403	      0.63517789568244331644	     -0.94119393120047412093	     54.40932379734832835538	    -49.58320715948610057922	      8.90540581603057646021	     84.22223917784336322256	      1.46995537705552870023	     14.56490647768381307969	      0.00000000000000000000	      0.00000000000000000000	     37.79352076136261473494	    -49.85347870500928735282	     -6.87164869846457104785	     73.08025310887713033026	      1.27549103494072801901	     10.73238566243233904629	      0.00000000000000000000	      0.00000000000000000000	    -69.14356849980535457689	     -5.07308558944751997188	     -5.73636590636246612718	     41.20775062155083645621	      5.32231666740845366093	     34.87825489987455540586	      2.60529687613873184304	      9.72830048444721384726	      0.00000000000000000000	      0.00000000000000000000	     49.83598299875500003964	    -10.30665833893443839031	     83.60946314718484018158	      7.97670601335832607504	     83.44539529018541657024	      0.00000000000000000000	      0.00000000000000000000
      8.03999999999999914735	    -17.23196409262737915924	     -4.21103826978790873881	    179.48582064966214488777	      0.23140427296571253191	      0.63585973562796849201	     -0.94096700706092872846	     54.10887969581355605442	    -49.59471274076393854102	      8.83886008076122031696	     84.10153490103802198519	      1.46784869000403683792	     14.50920653541619742555	      0.00000000000000000000	      0.00000000000000000000	     37.40298939848215553639	    -49.85375299164923035278	     -7.09899615232641867379	     72.98805617349528063187	      1.27388189485806635481	     11.00875006031659353312	      0.00000000000000000000	      0.00000000000000000000	    -69.36218974691209382399	     -5.06786534521179721224	     -5.75194945985255667864	     41.23175917441133009333	      5.27655201276150886969	     35.23868124619492192551	      2.57262043129704842670	      9.99628354367898985799	      0.00000000000000000000	      0.00000000000000000000	     49.89938498239716579974	    -10.43194806835544419243	     83.82343533002044466684	      8.21793807824732880363	     83.22242312286391552334	      0.00000000000000000000	      0.00000000000000000000
